<svg id="visual" viewBox="0 0 960 300" width="960" height="300" xmlns="http://www.w3.org/2000/svg" xmlns:xlink="http://www.w3.org/1999/xlink" version="1.1"><rect x="0" y="0" width="960" height="300" fill="#001220"></rect><path d="M0 116L22.8 115.5C45.7 115 91.3 114 137 107.8C182.7 101.7 228.3 90.3 274 89.5C319.7 88.7 365.3 98.3 411.2 99C457 99.7 503 91.3 548.8 88.5C594.7 85.7 640.3 88.3 686 88.3C731.7 88.3 777.3 85.7 823 88.7C868.7 91.7 914.3 100.3 937.2 104.7L960 109L960 0L937.2 0C914.3 0 868.7 0 823 0C777.3 0 731.7 0 686 0C640.3 0 594.7 0 548.8 0C503 0 457 0 411.2 0C365.3 0 319.7 0 274 0C228.3 0 182.7 0 137 0C91.3 0 45.7 0 22.8 0L0 0Z" fill="#fa7268"></path><path d="M0 80L22.8 79C45.7 78 91.3 76 137 77C182.7 78 228.3 82 274 84.3C319.7 86.7 365.3 87.3 411.2 86C457 84.7 503 81.3 548.8 83.2C594.7 85 640.3 92 686 95.7C731.7 99.3 777.3 99.7 823 96.2C868.7 92.7 914.3 85.3 937.2 81.7L960 78L960 0L937.2 0C914.3 0 868.7 0 823 0C777.3 0 731.7 0 686 0C640.3 0 594.7 0 548.8 0C503 0 457 0 411.2 0C365.3 0 319.7 0 274 0C228.3 0 182.7 0 137 0C91.3 0 45.7 0 22.8 0L0 0Z" fill="#ef5f67"></path><path d="M0 44L22.8 46.7C45.7 49.3 91.3 54.7 137 57.5C182.7 60.3 228.3 60.7 274 61.7C319.7 62.7 365.3 64.3 411.2 62C457 59.7 503 53.3 548.8 50.7C594.7 48 640.3 49 686 48.7C731.7 48.3 777.3 46.7 823 48C868.7 49.3 914.3 53.7 937.2 55.8L960 58L960 0L937.2 0C914.3 0 868.7 0 823 0C777.3 0 731.7 0 686 0C640.3 0 594.7 0 548.8 0C503 0 457 0 411.2 0C365.3 0 319.7 0 274 0C228.3 0 182.7 0 137 0C91.3 0 45.7 0 22.8 0L0 0Z" fill="#e34c67"></path><path d="M0 29L22.8 32.7C45.7 36.3 91.3 43.7 137 46.2C182.7 48.7 228.3 46.3 274 44.7C319.7 43 365.3 42 411.2 42.7C457 43.3 503 45.7 548.8 47.2C594.7 48.7 640.3 49.3 686 46C731.7 42.7 777.3 35.3 823 36.3C868.7 37.3 914.3 46.7 937.2 51.3L960 56L960 0L937.2 0C914.3 0 868.7 0 823 0C777.3 0 731.7 0 686 0C640.3 0 594.7 0 548.8 0C503 0 457 0 411.2 0C365.3 0 319.7 0 274 0C228.3 0 182.7 0 137 0C91.3 0 45.7 0 22.8 0L0 0Z" fill="#d53867"></path><path d="M0 18L22.8 18.7C45.7 19.3 91.3 20.7 137 22.5C182.7 24.3 228.3 26.7 274 26.5C319.7 26.3 365.3 23.7 411.2 22.3C457 21 503 21 548.8 20.5C594.7 20 640.3 19 686 20C731.7 21 777.3 24 823 26.3C868.7 28.7 914.3 30.3 937.2 31.2L960 32L960 0L937.2 0C914.3 0 868.7 0 823 0C777.3 0 731.7 0 686 0C640.3 0 594.7 0 548.8 0C503 0 457 0 411.2 0C365.3 0 319.7 0 274 0C228.3 0 182.7 0 137 0C91.3 0 45.7 0 22.8 0L0 0Z" fill="#c62368"></path></svg>