<svg id="visual" viewBox="0 0 960 500" width="960" height="500" xmlns="http://www.w3.org/2000/svg" xmlns:xlink="http://www.w3.org/1999/xlink" version="1.1"><rect x="0" y="0" width="960" height="500" fill="#002233"></rect><path d="M0 337L13.3 338.3C26.7 339.7 53.3 342.3 80 348.7C106.7 355 133.3 365 160 362.8C186.7 360.7 213.3 346.3 240 337.5C266.7 328.7 293.3 325.3 320 321.7C346.7 318 373.3 314 400 315.2C426.7 316.3 453.3 322.7 480 332.3C506.7 342 533.3 355 560 354.8C586.7 354.7 613.3 341.3 640 335.3C666.7 329.3 693.3 330.7 720 334.7C746.7 338.7 773.3 345.3 800 342.7C826.7 340 853.3 328 880 327.3C906.7 326.7 933.3 337.3 946.7 342.7L960 348L960 501L946.7 501C933.3 501 906.7 501 880 501C853.3 501 826.7 501 800 501C773.3 501 746.7 501 720 501C693.3 501 666.7 501 640 501C613.3 501 586.7 501 560 501C533.3 501 506.7 501 480 501C453.3 501 426.7 501 400 501C373.3 501 346.7 501 320 501C293.3 501 266.7 501 240 501C213.3 501 186.7 501 160 501C133.3 501 106.7 501 80 501C53.3 501 26.7 501 13.3 501L0 501Z" fill="#0066FF" stroke-linecap="round" stroke-linejoin="miter"></path></svg>