<svg id="visual" viewBox="0 0 960 300" width="960" height="300" xmlns="http://www.w3.org/2000/svg" xmlns:xlink="http://www.w3.org/1999/xlink" version="1.1"><rect x="0" y="0" width="960" height="300" fill="#001220"></rect><path d="M0 182L22.8 182.5C45.7 183 91.3 184 137 190.2C182.7 196.3 228.3 207.7 274 208.5C319.7 209.3 365.3 199.7 411.2 199C457 198.3 503 206.7 548.8 209.5C594.7 212.3 640.3 209.7 686 209.7C731.7 209.7 777.3 212.3 823 209.3C868.7 206.3 914.3 197.7 937.2 193.3L960 189L960 301L937.2 301C914.3 301 868.7 301 823 301C777.3 301 731.7 301 686 301C640.3 301 594.7 301 548.8 301C503 301 457 301 411.2 301C365.3 301 319.7 301 274 301C228.3 301 182.7 301 137 301C91.3 301 45.7 301 22.8 301L0 301Z" fill="#fa7268"></path><path d="M0 218L22.8 219C45.7 220 91.3 222 137 221C182.7 220 228.3 216 274 213.7C319.7 211.3 365.3 210.7 411.2 212C457 213.3 503 216.7 548.8 214.8C594.7 213 640.3 206 686 202.3C731.7 198.7 777.3 198.3 823 201.8C868.7 205.3 914.3 212.7 937.2 216.3L960 220L960 301L937.2 301C914.3 301 868.7 301 823 301C777.3 301 731.7 301 686 301C640.3 301 594.7 301 548.8 301C503 301 457 301 411.2 301C365.3 301 319.7 301 274 301C228.3 301 182.7 301 137 301C91.3 301 45.7 301 22.8 301L0 301Z" fill="#ef5f67"></path><path d="M0 254L22.8 251.3C45.7 248.7 91.3 243.3 137 240.5C182.7 237.7 228.3 237.3 274 236.3C319.7 235.3 365.3 233.7 411.2 236C457 238.3 503 244.7 548.8 247.3C594.7 250 640.3 249 686 249.3C731.7 249.7 777.3 251.3 823 250C868.7 248.7 914.3 244.3 937.2 242.2L960 240L960 301L937.2 301C914.3 301 868.7 301 823 301C777.3 301 731.7 301 686 301C640.3 301 594.7 301 548.8 301C503 301 457 301 411.2 301C365.3 301 319.7 301 274 301C228.3 301 182.7 301 137 301C91.3 301 45.7 301 22.8 301L0 301Z" fill="#e34c67"></path><path d="M0 269L22.8 265.3C45.7 261.7 91.3 254.3 137 251.8C182.7 249.3 228.3 251.7 274 253.3C319.7 255 365.3 256 411.2 255.3C457 254.7 503 252.3 548.8 250.8C594.7 249.3 640.3 248.7 686 252C731.7 255.3 777.3 262.7 823 261.7C868.7 260.7 914.3 251.3 937.2 246.7L960 242L960 301L937.2 301C914.3 301 868.7 301 823 301C777.3 301 731.7 301 686 301C640.3 301 594.7 301 548.8 301C503 301 457 301 411.2 301C365.3 301 319.7 301 274 301C228.3 301 182.7 301 137 301C91.3 301 45.7 301 22.8 301L0 301Z" fill="#d53867"></path><path d="M0 280L22.8 279.3C45.7 278.7 91.3 277.3 137 275.5C182.7 273.7 228.3 271.3 274 271.5C319.7 271.7 365.3 274.3 411.2 275.7C457 277 503 277 548.8 277.5C594.7 278 640.3 279 686 278C731.7 277 777.3 274 823 271.7C868.7 269.3 914.3 267.7 937.2 266.8L960 266L960 301L937.2 301C914.3 301 868.7 301 823 301C777.3 301 731.7 301 686 301C640.3 301 594.7 301 548.8 301C503 301 457 301 411.2 301C365.3 301 319.7 301 274 301C228.3 301 182.7 301 137 301C91.3 301 45.7 301 22.8 301L0 301Z" fill="#c62368"></path></svg>